<svg xmlns="http://www.w3.org/2000/svg" xmlns:xlink="http://www.w3.org/1999/xlink" id="Capa_1" data-name="Capa 1" viewBox="0 0 140 140"><defs><style>.cls-1{fill:none;}.cls-2{clip-path:url(#clip-path);}.cls-3{fill:#647164;}.cls-4{fill:#fff;}</style><clipPath id="clip-path"><circle class="cls-1" cx="70" cy="70" r="68.17"/></clipPath></defs><title>logo web</title><g class="cls-2"><rect class="cls-3" x="-17.11" y="-15.6" width="174.22" height="171.2"/><path class="cls-4" d="M64.63,31.61a44.09,44.09,0,0,0-5.2.32,8.61,8.61,0,0,1-.13,1.64A28.29,28.29,0,0,1,65,33c17.88,0,32.38,16.75,32.38,37.42S82.86,107.83,65,107.83a28.17,28.17,0,0,1-5.57-.58c0,0.27,0,.54,0,0.81a43.82,43.82,0,0,0,5.2.33c22.64,0,41-17.19,41-38.39S87.27,31.61,64.63,31.61Z"/><rect class="cls-4" x="60.38" y="32.53" width="7.12" height="75.3"/><path class="cls-4" d="M58.85,64.26C74.52,64.26,76,61.71,76,56h1.74v23.7H76C76,71.22,74.39,66,58.58,66"/><path class="cls-4" d="M61.56,106.85c-10.51-.06-12.25-6.31-12.25-17.89V82.7c0-13.94-1.43-16.69,6.15-16.91H56a37.93,37.93,0,0,1,5.52.36,8.64,8.64,0,0,1,.06-2c-1.52.11-3.27,0.17-5.36,0.17H56c-7.24,0-6.7-6.92-6.7-13.28,0-11.64,3.73-18,9-18h3.53a8.63,8.63,0,0,1,0-1.43H34.38v1.43c5.16,0,9,6.37,9,18,0,7.57,3.4,11.75,7.35,13.5-5.93,1-7.35,4.61-7.35,18.11V89c0,11.64-3.84,17.89-9,17.89v1.54H61.51A8.62,8.62,0,0,1,61.56,106.85Z"/></g></svg>